<svg xmlns="http://www.w3.org/2000/svg" viewBox="0 0 568.38 216" role="img">
<title>LEGNO — Maestria em Madeira. Monograma L em duas peças de madeira unidas por rabo-de-andorinha.</title>
<rect width="568.38" height="216" fill="#E0DED8"/>
<g transform="translate(58 58)">
<path id="peca-clara" d="M0 0H43V19.16L23 14.16V51.84L43 46.84V73H100V100H0Z" fill="#262626"/>
<path id="peca-escura" d="M100 0V70H46V43L26 48V18L46 23V0Z" fill="#38141B"/>
<path id="legno" d="M420.89 70.91Q411.19 70.91 404.12 67.83Q397.05 64.75 393.25 58.73Q389.45 52.71 389.45 43.97Q389.45 35.16 393.25 29.18Q397.05 23.2 404.12 20.12Q411.19 17.04 420.89 17.04Q430.68 17.04 437.73 20.12Q444.78 23.2 448.58 29.18Q452.38 35.16 452.38 43.97Q452.38 52.71 448.58 58.73Q444.78 64.75 437.73 67.83Q430.68 70.91 420.89 70.91ZM364.3 18H375.26V70H359.46L331.83 32.77V70H320.87V18H336.66L364.3 55.23ZM275.64 70.91Q260.91 70.91 253.37 64.29Q245.82 57.67 245.82 44Q245.82 35.05 249.6 29.04Q253.37 23.04 260.52 20.04Q267.67 17.04 277.65 17.04Q284.01 17.04 289.34 18.2Q294.66 19.36 298.58 21.73Q302.5 24.1 304.64 27.69Q306.78 31.29 306.78 36.17H295.86Q295.86 33.51 294.41 31.6Q292.95 29.7 290.45 28.53Q287.94 27.37 284.76 26.84Q281.57 26.3 278.06 26.3Q273.4 26.3 269.54 27.29Q265.69 28.28 262.92 30.35Q260.15 32.43 258.67 35.6Q257.18 38.77 257.18 43.08V44.83Q257.18 50.81 259.52 54.51Q261.87 58.2 266.27 59.92Q270.66 61.64 276.77 61.64Q283.15 61.64 287.4 60.33Q291.64 59.02 293.79 56.55Q295.94 54.07 295.94 50.66V50.07H276.12V41.23H306.84V70H299.73L298.63 63.48Q295.97 66.08 292.44 67.72Q288.9 69.36 284.68 70.13Q280.45 70.91 275.64 70.91ZM420.91 61.64Q425.4 61.64 429.08 60.56Q432.75 59.48 435.43 57.38Q438.1 55.28 439.57 52.11Q441.04 48.95 441.04 44.8V43.08Q441.04 38.92 439.57 35.77Q438.1 32.61 435.43 30.51Q432.75 28.41 429.08 27.36Q425.4 26.3 420.91 26.3Q416.43 26.3 412.75 27.36Q409.07 28.41 406.4 30.51Q403.73 32.61 402.29 35.77Q400.86 38.92 400.86 43.08V44.8Q400.86 48.95 402.29 52.11Q403.73 55.28 406.4 57.38Q409.07 59.48 412.75 60.56Q416.43 61.64 420.91 61.64ZM130 70V17.95H141.05V60.29H172.15V70ZM184.88 18H231.38V27.29H184.88ZM184.88 60.71H231.38V70H184.88ZM184.88 39.35H226.38V48.65H184.88Z" fill="#262626"/>

<path id="maestria-em-madeira" d="M373.58 91V78.99H379.54Q381.63 78.99 383.14 79.67Q384.64 80.34 385.44 81.68Q386.25 83.01 386.25 85Q386.25 86.97 385.44 88.31Q384.64 89.64 383.14 90.32Q381.63 91 379.54 91ZM223.82 91V78.99H232.44Q233.73 78.99 234.56 79.49Q235.39 79.99 235.8 80.83Q236.21 81.68 236.21 82.74Q236.21 83.83 235.67 84.76Q235.12 85.69 234.01 86.19L236.54 91H233.69L231.49 86.67H226.37V91ZM420.43 91V78.99H429.05Q430.35 78.99 431.18 79.49Q432.01 79.99 432.42 80.83Q432.83 81.68 432.83 82.74Q432.83 83.83 432.29 84.76Q431.74 85.69 430.63 86.19L433.16 91H430.31L428.11 86.67H422.99V91ZM130 91V78.99H133.98L136.48 85.3Q136.6 85.6 136.77 86.09Q136.95 86.57 137.13 87.08Q137.32 87.59 137.46 88H137.59Q137.71 87.63 137.88 87.15Q138.05 86.66 138.23 86.17Q138.41 85.68 138.54 85.32L141.05 78.99H144.95V91H142.4V84.01Q142.4 83.57 142.41 83.08Q142.42 82.59 142.44 82.17Q142.46 81.75 142.48 81.53H142.34Q142.26 81.77 142.12 82.18Q141.98 82.59 141.84 83.03Q141.69 83.46 141.57 83.79L138.66 91H136.21L133.29 83.79Q133.15 83.44 133 83.02Q132.86 82.6 132.74 82.21Q132.62 81.81 132.53 81.53H132.39Q132.41 81.82 132.42 82.25Q132.43 82.68 132.44 83.13Q132.45 83.59 132.45 84.01V91ZM332.81 91V78.99H336.79L339.29 85.3Q339.41 85.6 339.59 86.09L339.94 87.08Q340.13 87.59 340.27 88H340.4Q340.52 87.63 340.69 87.15Q340.86 86.66 341.04 86.17Q341.22 85.68 341.35 85.32L343.86 78.99H347.76V91H345.21V84.01Q345.21 83.57 345.22 83.08Q345.23 82.59 345.25 82.17Q345.27 81.75 345.29 81.53H345.15Q345.07 81.77 344.93 82.18Q344.79 82.59 344.65 83.03Q344.5 83.46 344.38 83.79L341.47 91H339.02L336.1 83.79Q335.96 83.44 335.81 83.02Q335.67 82.6 335.55 82.21Q335.43 81.81 335.34 81.53H335.2Q335.22 81.82 335.23 82.25Q335.24 82.68 335.25 83.13Q335.26 83.59 335.26 84.01V91ZM300.01 91V78.99H303.98L306.49 85.3Q306.61 85.6 306.78 86.09L307.14 87.08Q307.33 87.59 307.47 88H307.59Q307.72 87.63 307.89 87.15Q308.06 86.66 308.24 86.17Q308.41 85.68 308.55 85.32L311.06 78.99H314.96V91H312.41V84.01Q312.41 83.57 312.42 83.08Q312.43 82.59 312.45 82.17Q312.47 81.75 312.48 81.53H312.34Q312.27 81.77 312.13 82.18Q311.99 82.59 311.85 83.03Q311.7 83.46 311.58 83.79L308.67 91H306.22L303.3 83.79Q303.15 83.44 303.01 83.02Q302.87 82.6 302.75 82.21Q302.63 81.81 302.54 81.53H302.4Q302.41 81.82 302.43 82.25Q302.44 82.68 302.45 83.13Q302.46 83.59 302.46 84.01V91ZM392.77 91V78.99H404.14V81.13H395.32V83.81H403.17V85.95H395.32V88.86H404.27V91ZM281.94 91V78.99H293.32V81.13H284.49V83.81H292.34V85.95H284.49V88.86H293.45V91ZM170.77 91V78.99H182.14V81.13H173.32V83.81H181.17V85.95H173.32V88.86H182.27V91ZM438.13 91 443.77 78.99H446.74L452.38 91H449.59L448.5 88.61H441.84L440.75 91ZM150.74 91 156.38 78.99H159.35L164.99 91H162.2L161.11 88.61H154.44L153.36 91ZM251.11 91 256.75 78.99H259.72L265.36 91H262.57L261.48 88.61H254.82L253.73 91ZM353.55 91 359.19 78.99H362.16L367.8 91H365.01L363.92 88.61H357.26L356.17 91ZM194.31 91.21Q193.05 91.21 191.94 91.03Q190.83 90.85 189.99 90.41Q189.15 89.97 188.68 89.22Q188.21 88.48 188.21 87.34Q188.21 87.29 188.21 87.22Q188.21 87.15 188.22 87.11H190.75Q190.74 87.17 190.73 87.27Q190.72 87.37 190.72 87.47Q190.72 88.03 191.16 88.39Q191.59 88.75 192.4 88.92Q193.2 89.1 194.29 89.1Q194.81 89.1 195.31 89.05Q195.81 88.99 196.24 88.89Q196.67 88.8 197 88.63Q197.33 88.47 197.51 88.23Q197.7 88 197.7 87.7Q197.7 87.23 197.31 86.94Q196.93 86.65 196.27 86.46Q195.62 86.27 194.8 86.13Q193.98 85.99 193.11 85.83Q192.24 85.67 191.42 85.41Q190.6 85.15 189.95 84.76Q189.3 84.36 188.91 83.74Q188.53 83.11 188.53 82.21Q188.53 81.37 188.92 80.73Q189.31 80.09 190.06 79.65Q190.81 79.22 191.88 79Q192.95 78.78 194.31 78.78Q195.66 78.78 196.7 79.01Q197.75 79.24 198.46 79.69Q199.17 80.14 199.53 80.78Q199.89 81.42 199.89 82.25V82.51H197.4V82.29Q197.4 81.87 197.01 81.56Q196.62 81.25 195.95 81.07Q195.28 80.89 194.42 80.89Q193.29 80.89 192.57 81.05Q191.84 81.2 191.5 81.48Q191.15 81.75 191.15 82.11Q191.15 82.52 191.53 82.78Q191.92 83.04 192.57 83.21Q193.22 83.37 194.04 83.51Q194.86 83.65 195.73 83.82Q196.6 83.99 197.42 84.24Q198.24 84.49 198.89 84.89Q199.55 85.3 199.93 85.91Q200.31 86.52 200.31 87.4Q200.31 88.78 199.55 89.62Q198.79 90.46 197.43 90.84Q196.08 91.21 194.31 91.21ZM210.45 91V81.22H205.53V78.99H217.92V81.22H213V91ZM376.13 88.86H379.44Q380.36 88.86 381.13 88.62Q381.9 88.39 382.46 87.94Q383.01 87.48 383.31 86.79Q383.62 86.1 383.62 85.19V84.8Q383.62 83.88 383.31 83.2Q383.01 82.51 382.46 82.05Q381.9 81.6 381.13 81.36Q380.36 81.13 379.44 81.13H376.13ZM242.77 91V78.99H245.33V91ZM410.83 91V78.99H413.39V91ZM226.37 84.54H231.86Q232.69 84.54 233.15 84.06Q233.6 83.57 233.6 82.78Q233.6 82.25 233.4 81.88Q233.21 81.51 232.82 81.32Q232.43 81.13 231.86 81.13H226.37ZM422.99 84.54H428.48Q429.31 84.54 429.77 84.06Q430.22 83.57 430.22 82.78Q430.22 82.25 430.02 81.88Q429.83 81.51 429.44 81.32Q429.05 81.13 428.48 81.13H422.99ZM442.79 86.52H447.54L446.19 83.49Q446.11 83.31 445.96 82.96Q445.82 82.61 445.67 82.24Q445.52 81.87 445.39 81.57Q445.27 81.26 445.23 81.18H445.11Q444.97 81.53 444.78 81.98Q444.59 82.44 444.42 82.85Q444.25 83.27 444.14 83.51ZM255.77 86.52H260.52L259.17 83.49Q259.09 83.31 258.94 82.96Q258.8 82.61 258.65 82.24Q258.5 81.87 258.38 81.57Q258.25 81.26 258.22 81.18H258.09Q257.95 81.53 257.76 81.98Q257.57 82.44 257.4 82.85Q257.23 83.27 257.12 83.51ZM155.4 86.52H160.15L158.8 83.49Q158.72 83.31 158.57 82.96Q158.43 82.61 158.28 82.24Q158.13 81.87 158 81.57Q157.88 81.26 157.84 81.18H157.72Q157.58 81.53 157.39 81.98Q157.2 82.44 157.03 82.85Q156.86 83.27 156.75 83.51ZM358.21 86.52H362.96L361.61 83.49Q361.53 83.31 361.38 82.96Q361.24 82.61 361.09 82.24Q360.94 81.87 360.82 81.57Q360.69 81.26 360.65 81.18H360.53Q360.39 81.53 360.2 81.98Q360.01 82.44 359.84 82.85Q359.67 83.27 359.56 83.51Z" fill="#38141B"/>
</g></svg>